<?xml version="1.0" encoding="UTF-8"?>
<svg version="1.1" viewBox="0 0 350 200" xmlns="http://www.w3.org/2000/svg">
  <text x="305.000" y="10" fill="#442434" font-family="sans-serif" font-size="5" xml:space="preserve">basic-execution</text>
  <path d="M 0.0000 104.9882 158.9783 161.9523 161.8416 163.2041 283.0523 144.5376 284.7975 155.8016 287.1154 164.4201 288.8061 164.5629 291.0149 157.4825 292.7192 160.0215 294.4099 165.8148 296.6459 162.3460 298.3230 165.6709 300.0000 166.1005" fill="none" stroke="#442434" stroke-width="1.00" />
  <text x="305.000" y="17" fill="#30346d" font-family="sans-serif" font-size="5" xml:space="preserve">array-creation</text>
  <path d="M 0.0000 109.4579 158.9783 125.7641 161.8416 94.5464 283.0523 107.3485 284.7975 147.4340 287.1154 135.9913 288.8061 82.0306 291.0149 124.8343 292.7192 132.3438 294.4099 118.9340 296.6459 141.4625 298.3230 140.4257 300.0000 132.7729" fill="none" stroke="#30346d" stroke-width="1.00" />
  <text x="305.000" y="24" fill="#4e4a4e" font-family="sans-serif" font-size="5" xml:space="preserve">cow-calls</text>
  <path d="M 0.0000 98.9087 158.9783 138.9952 161.8416 142.0344 283.0523 141.1046 284.7975 120.6502 287.1154 129.6978 288.8061 142.5352 291.0149 126.4440 292.7192 132.7370 294.4099 140.6761 296.6459 125.7288 298.3230 110.3524 300.0000 135.5622" fill="none" stroke="#4e4a4e" stroke-width="1.00" />
  <text x="305.000" y="31" fill="#854c30" font-family="sans-serif" font-size="5" xml:space="preserve">array-modification</text>
  <path d="M 0.0000 134.2746 158.9783 147.4345 161.8416 143.1787 283.0523 137.4935 284.7975 149.6873 287.1154 135.7056 288.8061 146.8262 291.0149 145.2529 292.7192 140.4611 294.4099 132.6653 296.6459 129.9835 298.3230 148.4355 300.0000 142.1061" fill="none" stroke="#854c30" stroke-width="1.00" />
  <text x="305.000" y="38" fill="#346524" font-family="sans-serif" font-size="5" xml:space="preserve">function-call</text>
  <path d="M 0.0000 123.5830 158.9783 136.0983 161.8416 149.9371 283.0523 149.0790 284.7975 127.4808 287.1154 140.2824 288.8061 146.0751 291.0149 143.6436 292.7192 144.6805 294.4099 147.7919 296.6459 143.2504 298.3230 148.7570 300.0000 138.4945" fill="none" stroke="#346524" stroke-width="1.00" />
</svg>
