<?xml version="1.0" encoding="UTF-8"?>
<svg version="1.1" viewBox="0 0 350 200" xmlns="http://www.w3.org/2000/svg">
  <text x="305.000" y="10" fill="#442434" font-family="sans-serif" font-size="5" xml:space="preserve">array-creation</text>
  <path d="M 0.0000 149.8601 158.6007 169.9112 161.4722 170.4112 283.0720 168.2314 284.8496 166.8370 287.1057 169.3147 288.8013 170.3100 290.4831 170.5249 292.7393 169.9120 294.4075 169.7807 296.6500 170.4295 298.3318 169.9827 300.0000 168.8399" fill="none" stroke="#442434" stroke-width="1.00" />
  <text x="305.000" y="17" fill="#30346d" font-family="sans-serif" font-size="5" xml:space="preserve">function-call</text>
  <path d="M 0.0000 139.6957 158.6007 140.0380 161.4722 138.5148 283.0720 138.7516 284.8496 135.4298 287.1057 138.3438 288.8013 141.0304 290.4831 139.9181 292.7393 139.6901 294.4075 137.3085 296.6500 139.6490 298.3318 140.2816 300.0000 140.7930" fill="none" stroke="#30346d" stroke-width="1.00" />
  <text x="305.000" y="24" fill="#4e4a4e" font-family="sans-serif" font-size="5" xml:space="preserve">cow-calls</text>
  <path d="M 0.0000 107.3458 158.6007 134.1336 161.4722 132.4018 283.0720 128.7460 284.8496 130.1644 287.1057 131.6920 288.8013 133.8144 290.4831 132.9863 292.7393 132.5924 294.4075 130.5460 296.6500 132.2404 298.3318 132.3820 300.0000 134.8138" fill="none" stroke="#4e4a4e" stroke-width="1.00" />
  <text x="305.000" y="31" fill="#854c30" font-family="sans-serif" font-size="5" xml:space="preserve">array-modification</text>
  <path d="M 0.0000 143.4203 158.6007 159.7057 161.4722 159.9532 283.0720 156.3931 284.8496 161.3119 287.1057 160.4832 288.8013 161.5026 290.4831 159.0665 292.7393 160.9220 294.4075 161.0613 296.6500 160.7896 298.3318 161.1690 300.0000 162.2141" fill="none" stroke="#854c30" stroke-width="1.00" />
  <text x="305.000" y="38" fill="#346524" font-family="sans-serif" font-size="5" xml:space="preserve">basic-execution</text>
  <path d="M 0.0000 197.4272 158.6007 197.3689 161.4722 197.4109 283.0720 197.1674 284.8496 197.3174 287.1057 197.2178 288.8013 197.4189 290.4831 197.3992 292.7393 197.3949 294.4075 197.2937 296.6500 197.3391 298.3318 197.3752 300.0000 197.3926" fill="none" stroke="#346524" stroke-width="1.00" />
</svg>
