<?xml version="1.0" encoding="UTF-8"?>
<svg version="1.1" viewBox="0 0 350 200" xmlns="http://www.w3.org/2000/svg">
  <text x="305.000" y="10" fill="#442434" font-family="sans-serif" font-size="5" xml:space="preserve">array-creation</text>
  <path d="M 0.0000 166.2126 158.3830 179.2137 161.2478 177.5738 282.5656 177.1726 284.8438 173.3197 286.5900 178.4917 288.8136 178.3912 290.5052 179.0043 292.1968 178.6801 294.4341 177.9155 296.1257 178.7874 298.3493 179.2462 300.0000 179.4719" fill="none" stroke="#442434" stroke-width="1.00" />
  <text x="305.000" y="17" fill="#30346d" font-family="sans-serif" font-size="5" xml:space="preserve">function-call</text>
  <path d="M 0.0000 132.3622 158.3830 157.4357 161.2478 157.2691 282.5656 156.5205 284.8438 142.9492 286.5900 156.9846 288.8136 156.8434 290.5052 157.8311 292.1968 157.2370 294.4341 157.6254 296.1257 158.0953 298.3493 158.0130 300.0000 157.6758" fill="none" stroke="#30346d" stroke-width="1.00" />
  <text x="305.000" y="24" fill="#4e4a4e" font-family="sans-serif" font-size="5" xml:space="preserve">cow-calls</text>
  <path d="M 0.0000 127.2144 158.3830 151.2545 161.2478 152.8507 282.5656 152.4030 284.8438 152.9529 286.5900 152.4684 288.8136 151.1273 290.5052 151.9003 292.1968 150.5724 294.4341 153.3567 296.1257 154.0673 298.3493 152.9318 300.0000 154.9457" fill="none" stroke="#4e4a4e" stroke-width="1.00" />
  <text x="305.000" y="31" fill="#854c30" font-family="sans-serif" font-size="5" xml:space="preserve">array-modification</text>
  <path d="M 0.0000 163.6900 158.3830 167.9940 161.2478 169.1957 282.5656 169.4427 284.8438 167.6868 286.5900 169.1701 288.8136 169.2730 290.5052 169.0759 292.1968 168.3875 294.4341 169.0349 296.1257 169.6668 298.3493 169.1782 300.0000 170.5266" fill="none" stroke="#854c30" stroke-width="1.00" />
  <text x="305.000" y="38" fill="#346524" font-family="sans-serif" font-size="5" xml:space="preserve">basic-execution</text>
  <path d="M 0.0000 198.4813 158.3830 199.1333 161.2478 199.0976 282.5656 199.1586 284.8438 199.0833 286.5900 199.0749 288.8136 199.0817 290.5052 199.1170 292.1968 199.0896 294.4341 199.1372 296.1257 199.1445 298.3493 199.1066 300.0000 199.1385" fill="none" stroke="#346524" stroke-width="1.00" />
</svg>
