<?xml version="1.0" encoding="UTF-8"?>
<svg version="1.1" viewBox="0 0 350 200" xmlns="http://www.w3.org/2000/svg">
  <text x="305.000" y="10" fill="#442434" font-family="sans-serif" font-size="5" xml:space="preserve">string-concat</text>
  <path d="M 0.0000 189.4866 0.0000 190.2377 0.5649 182.6929 299.9999 188.0566 299.9999 188.2353 300.0000 188.3064 300.0000 187.2696 300.0000 187.3772" fill="none" stroke="#442434" stroke-width="1.00" />
  <text x="305.000" y="17" fill="#30346d" font-family="sans-serif" font-size="5" xml:space="preserve">array-creation</text>
  <path d="M 0.0000 191.8111 0.0000 191.6324 0.5649 191.1675 299.9999 186.4115 299.9999 190.9888 300.0000 191.0605 300.0000 189.7728 300.0000 191.8111" fill="none" stroke="#30346d" stroke-width="1.00" />
  <text x="305.000" y="24" fill="#4e4a4e" font-family="sans-serif" font-size="5" xml:space="preserve">function-call</text>
  <path d="M 0.0000 188.9864 0.0000 189.7370 0.5649 188.9864 299.9999 187.2696 299.9999 188.0924 300.0000 187.4842 300.0000 187.3413 300.0000 188.2353" fill="none" stroke="#4e4a4e" stroke-width="1.00" />
  <text x="305.000" y="31" fill="#854c30" font-family="sans-serif" font-size="5" xml:space="preserve">array-deep-copy</text>
  <path d="M 0.0000 188.2353 0.0000 190.4522 0.5649 188.8077 299.9999 179.6889 299.9999 187.8415 300.0000 187.8062 300.0000 187.0198 300.0000 187.9849" fill="none" stroke="#854c30" stroke-width="1.00" />
  <text x="305.000" y="38" fill="#346524" font-family="sans-serif" font-size="5" xml:space="preserve">array-concat</text>
  <path d="M 0.0000 177.9722 0.0000 187.2343 0.5649 155.8026 299.9999 179.2599 299.9999 184.2662 300.0000 185.8391 300.0000 185.8038 300.0000 160.4506" fill="none" stroke="#346524" stroke-width="1.00" />
  <text x="305.000" y="45" fill="#d04648" font-family="sans-serif" font-size="5" xml:space="preserve">cow-calls</text>
  <path d="M 0.0000 191.2033 0.0000 191.2386 0.5649 189.8450 299.9999 188.3786 299.9999 189.8086 300.0000 187.3055 300.0000 188.2711 300.0000 189.4866" fill="none" stroke="#d04648" stroke-width="1.00" />
  <text x="305.000" y="52" fill="#757161" font-family="sans-serif" font-size="5" xml:space="preserve">array-modification</text>
  <path d="M 0.0000 190.3094 0.0000 190.2377 0.5649 187.5917 299.9999 185.0885 299.9999 187.8420 300.0000 186.0542 300.0000 187.3772 300.0000 188.0561" fill="none" stroke="#757161" stroke-width="1.00" />
  <text x="305.000" y="59" fill="#597dce" font-family="sans-serif" font-size="5" xml:space="preserve">basic-execution</text>
  <path d="M 0.0000 188.0207 0.0000 190.5592 0.5649 188.9152 299.9999 187.4125 299.9999 188.2711 300.0000 187.5917 300.0000 186.8047 300.0000 187.8057" fill="none" stroke="#597dce" stroke-width="1.00" />
</svg>
