<?xml version="1.0" encoding="UTF-8"?>
<svg version="1.1" viewBox="0 0 350 200" xmlns="http://www.w3.org/2000/svg">
  <text x="305.000" y="10" fill="#442434" font-family="sans-serif" font-size="5" xml:space="preserve">basic-execution</text>
  <path d="M 0.0000 161.3798 158.9783 187.0909 161.8416 186.1970 283.0523 167.5310 284.7975 186.0900 287.1154 186.6261 288.8061 183.4793 291.0149 186.0542 292.7192 187.4130 294.4099 181.9413 296.6459 187.8062 298.3230 187.3772 300.0000 187.7704" fill="none" stroke="#442434" stroke-width="1.00" />
  <text x="305.000" y="17" fill="#30346d" font-family="sans-serif" font-size="5" xml:space="preserve">array-creation</text>
  <path d="M 0.0000 180.2609 158.9783 184.3732 161.8416 177.2575 283.0523 180.7258 284.7975 188.8072 287.1154 186.0895 288.8061 176.4347 291.0149 181.2977 292.7192 185.3389 294.4099 181.2265 296.6459 187.8062 298.3230 188.2353 300.0000 188.7360" fill="none" stroke="#30346d" stroke-width="1.00" />
  <text x="305.000" y="24" fill="#4e4a4e" font-family="sans-serif" font-size="5" xml:space="preserve">cow-calls</text>
  <path d="M 0.0000 175.0764 158.9783 187.7704 161.8416 187.8062 283.0523 187.5558 284.7975 180.9408 287.1154 185.8396 288.8061 187.9491 291.0149 186.5544 292.7192 188.2711 294.4099 188.0561 296.6459 182.4061 298.3230 179.2594 300.0000 187.2696" fill="none" stroke="#4e4a4e" stroke-width="1.00" />
  <text x="305.000" y="31" fill="#854c30" font-family="sans-serif" font-size="5" xml:space="preserve">array-modification</text>
  <path d="M 0.0000 187.0915 158.9783 188.2706 161.8416 187.9491 283.0523 184.9452 284.7975 188.0561 287.1154 187.5200 288.8061 188.0566 291.0149 188.3069 292.7192 187.3772 294.4099 182.6929 296.6459 182.6570 298.3230 187.3413 300.0000 188.3428" fill="none" stroke="#854c30" stroke-width="1.00" />
  <text x="305.000" y="38" fill="#346524" font-family="sans-serif" font-size="5" xml:space="preserve">function-call</text>
  <path d="M 0.0000 180.5112 158.9783 187.7704 161.8416 188.3069 283.0523 187.9849 284.7975 181.4410 287.1154 186.4474 288.8061 187.4842 291.0149 185.3747 292.7192 188.5215 294.4099 187.7345 296.6459 187.8062 298.3230 187.7350 300.0000 187.8062" fill="none" stroke="#346524" stroke-width="1.00" />
</svg>
