<?xml version="1.0" encoding="UTF-8"?>
<svg version="1.1" viewBox="0 0 350 200" xmlns="http://www.w3.org/2000/svg">
  <text x="305.000" y="10" fill="#442434" font-family="sans-serif" font-size="5" xml:space="preserve">string-concat</text>
  <path d="M 0.0000 189.4866 0.0056 190.2377 300.0000 182.6929" fill="none" stroke="#442434" stroke-width="1.00" />
  <text x="305.000" y="17" fill="#30346d" font-family="sans-serif" font-size="5" xml:space="preserve">array-creation</text>
  <path d="M 0.0000 191.8111 0.0056 191.6324 300.0000 191.1675" fill="none" stroke="#30346d" stroke-width="1.00" />
  <text x="305.000" y="24" fill="#4e4a4e" font-family="sans-serif" font-size="5" xml:space="preserve">function-call</text>
  <path d="M 0.0000 188.9864 0.0056 189.7370 300.0000 188.9864" fill="none" stroke="#4e4a4e" stroke-width="1.00" />
  <text x="305.000" y="31" fill="#854c30" font-family="sans-serif" font-size="5" xml:space="preserve">array-deep-copy</text>
  <path d="M 0.0000 188.2353 0.0056 190.4522 300.0000 188.8077" fill="none" stroke="#854c30" stroke-width="1.00" />
  <text x="305.000" y="38" fill="#346524" font-family="sans-serif" font-size="5" xml:space="preserve">array-concat</text>
  <path d="M 0.0000 177.9722 0.0056 187.2343 300.0000 155.8026" fill="none" stroke="#346524" stroke-width="1.00" />
  <text x="305.000" y="45" fill="#d04648" font-family="sans-serif" font-size="5" xml:space="preserve">cow-calls</text>
  <path d="M 0.0000 191.2033 0.0056 191.2386 300.0000 189.8450" fill="none" stroke="#d04648" stroke-width="1.00" />
  <text x="305.000" y="52" fill="#757161" font-family="sans-serif" font-size="5" xml:space="preserve">array-modification</text>
  <path d="M 0.0000 190.3094 0.0056 190.2377 300.0000 187.5917" fill="none" stroke="#757161" stroke-width="1.00" />
  <text x="305.000" y="59" fill="#597dce" font-family="sans-serif" font-size="5" xml:space="preserve">basic-execution</text>
  <path d="M 0.0000 188.0207 0.0056 190.5592 300.0000 188.9152" fill="none" stroke="#597dce" stroke-width="1.00" />
</svg>
